HIERARCHY
ROOT hip
{
  OFFSET 5.70873 43.8894 -1.52928
  CHANNELS 6 Xposition Yposition Zposition Zrotation Xrotation Yrotation
  JOINT abdomen
  {
    OFFSET 0 5.99393 0.287273
    CHANNELS 6 Xposition Yposition Zposition Zrotation Xrotation Yrotation
    JOINT chest
    {
      OFFSET 0 6.65865 -0.856112
      CHANNELS 6 Xposition Yposition Zposition Zrotation Xrotation Yrotation
      JOINT neck
      {
        OFFSET 0 8.65624 -1.42685
        CHANNELS 6 Xposition Yposition Zposition Zrotation Xrotation Yrotation
        JOINT head
        {
          OFFSET 0 3.80999 -0.190247
          CHANNELS 6 Xposition Yposition Zposition Zrotation Xrotation Yrotation
          End Site
          {
            OFFSET 0 0 0
          }
        }
      }
      JOINT rCollar
      {
        OFFSET -1.4963 7.5744 -1.52136
        CHANNELS 6 Xposition Yposition Zposition Zrotation Xrotation Yrotation
        JOINT rShldr
        {
          OFFSET -5.47506 -0.905672 0.485692
          CHANNELS 6 Xposition Yposition Zposition Zrotation Xrotation Yrotation
          JOINT rForeArm
          {
            OFFSET -11.3069 -0.201091 0.618544
            CHANNELS 6 Xposition Yposition Zposition Zrotation Xrotation Yrotation
            JOINT rHand
            {
              OFFSET -9.61414 -0.254739 3.48553
              CHANNELS 6 Xposition Yposition Zposition Zrotation Xrotation Yrotation
              JOINT rThumb1
              {
                OFFSET 0.176263 -0.07068 1.26622
                CHANNELS 6 Xposition Yposition Zposition Zrotation Xrotation Yrotation
                JOINT rThumb2
                {
                  OFFSET -1.04683 -0.546484 1.82182
                  CHANNELS 6 Xposition Yposition Zposition Zrotation Xrotation Yrotation
                  JOINT rThumb3
                  {
                    OFFSET -0.993472 -0.621916 0.655506
                    CHANNELS 6 Xposition Yposition Zposition Zrotation Xrotation Yrotation
                    End Site
                    {
                      OFFSET -0.996134 -0.66263 0.644615
                    }
                  }
                }
              }
              JOINT rIndex1
              {
                OFFSET -2.64253 0.566363 2.4162
                CHANNELS 6 Xposition Yposition Zposition Zrotation Xrotation Yrotation
                JOINT rIndex2
                {
                  OFFSET -1.39394 -0.635138 0.899356
                  CHANNELS 6 Xposition Yposition Zposition Zrotation Xrotation Yrotation
                  JOINT rIndex3
                  {
                    OFFSET -0.622395 -0.856016 0.402182
                    CHANNELS 6 Xposition Yposition Zposition Zrotation Xrotation Yrotation
                    End Site
                    {
                      OFFSET -0.472476 -0.801802 0.34216
                    }
                  }
                }
              }
              JOINT rMid1
              {
                OFFSET -3.20814 0.514427 1.52547
                CHANNELS 6 Xposition Yposition Zposition Zrotation Xrotation Yrotation
                JOINT rMid2
                {
                  OFFSET -1.56545 -0.497974 0.68919
                  CHANNELS 6 Xposition Yposition Zposition Zrotation Xrotation Yrotation
                  JOINT rMid3
                  {
                    OFFSET -0.679943 -1.17582 0.444246
                    CHANNELS 6 Xposition Yposition Zposition Zrotation Xrotation Yrotation
                    End Site
                    {
                      OFFSET -0.343874 -0.941341 0.267611
                    }
                  }
                }
              }
              JOINT rRing1
              {
                OFFSET -3.47877 0.200518 0.597719
                CHANNELS 6 Xposition Yposition Zposition Zrotation Xrotation Yrotation
                JOINT rRing2
                {
                  OFFSET -1.28208 -0.53155 0.44672
                  CHANNELS 6 Xposition Yposition Zposition Zrotation Xrotation Yrotation
                  JOINT rRing3
                  {
                    OFFSET -0.710288 -0.970167 0.4032
                    CHANNELS 6 Xposition Yposition Zposition Zrotation Xrotation Yrotation
                    End Site
                    {
                      OFFSET -0.403228 -0.950952 0.378354
                    }
                  }
                }
              }
              JOINT rPinky1
              {
                OFFSET -3.42483 -0.278904 -0.240415
                CHANNELS 6 Xposition Yposition Zposition Zrotation Xrotation Yrotation
                JOINT rPinky2
                {
                  OFFSET -1.05787 -0.635999 0.156459
                  CHANNELS 6 Xposition Yposition Zposition Zrotation Xrotation Yrotation
                  JOINT rPinky3
                  {
                    OFFSET -0.42815 -0.754232 0.287187
                    CHANNELS 6 Xposition Yposition Zposition Zrotation Xrotation Yrotation
                    End Site
                    {
                      OFFSET -0.235717 -0.725605 0.279416
                    }
                  }
                }
              }
            }
          }
        }
      }
      JOINT lCollar
      {
        OFFSET 1.4963 7.5744 -1.52136
        CHANNELS 6 Xposition Yposition Zposition Zrotation Xrotation Yrotation
        JOINT lShldr
        {
          OFFSET 5.47506 -0.905672 0.485692
          CHANNELS 6 Xposition Yposition Zposition Zrotation Xrotation Yrotation
          JOINT lForeArm
          {
            OFFSET 11.3069 -0.201091 0.618544
            CHANNELS 6 Xposition Yposition Zposition Zrotation Xrotation Yrotation
            JOINT lHand
            {
              OFFSET 9.61414 -0.254739 3.48553
              CHANNELS 6 Xposition Yposition Zposition Zrotation Xrotation Yrotation
              JOINT lThumb1
              {
                OFFSET -0.176263 -0.07068 1.26622
                CHANNELS 6 Xposition Yposition Zposition Zrotation Xrotation Yrotation
                JOINT lThumb2
                {
                  OFFSET 1.04683 -0.546484 1.82182
                  CHANNELS 6 Xposition Yposition Zposition Zrotation Xrotation Yrotation
                  JOINT lThumb3
                  {
                    OFFSET 0.993472 -0.621916 0.655506
                    CHANNELS 6 Xposition Yposition Zposition Zrotation Xrotation Yrotation
                    End Site
                    {
                      OFFSET 0.996134 -0.66263 0.644615
                    }
                  }
                }
              }
              JOINT lIndex1
              {
                OFFSET 2.64253 0.566363 2.4162
                CHANNELS 6 Xposition Yposition Zposition Zrotation Xrotation Yrotation
                JOINT lIndex2
                {
                  OFFSET 1.39394 -0.635138 0.899356
                  CHANNELS 6 Xposition Yposition Zposition Zrotation Xrotation Yrotation
                  JOINT lIndex3
                  {
                    OFFSET 0.622395 -0.856016 0.402182
                    CHANNELS 6 Xposition Yposition Zposition Zrotation Xrotation Yrotation
                    End Site
                    {
                      OFFSET 0.472476 -0.801802 0.34216
                    }
                  }
                }
              }
              JOINT lMid1
              {
                OFFSET 3.20814 0.514427 1.52547
                CHANNELS 6 Xposition Yposition Zposition Zrotation Xrotation Yrotation
                JOINT lMid2
                {
                  OFFSET 1.56545 -0.497974 0.68919
                  CHANNELS 6 Xposition Yposition Zposition Zrotation Xrotation Yrotation
                  JOINT lMid3
                  {
                    OFFSET 0.679943 -1.17582 0.444246
                    CHANNELS 6 Xposition Yposition Zposition Zrotation Xrotation Yrotation
                    End Site
                    {
                      OFFSET 0.343874 -0.941341 0.267611
                    }
                  }
                }
              }
              JOINT lRing1
              {
                OFFSET 3.47877 0.200518 0.597719
                CHANNELS 6 Xposition Yposition Zposition Zrotation Xrotation Yrotation
                JOINT lRing2
                {
                  OFFSET 1.28208 -0.53155 0.44672
                  CHANNELS 6 Xposition Yposition Zposition Zrotation Xrotation Yrotation
                  JOINT lRing3
                  {
                    OFFSET 0.710288 -0.970167 0.4032
                    CHANNELS 6 Xposition Yposition Zposition Zrotation Xrotation Yrotation
                    End Site
                    {
                      OFFSET 0.403228 -0.950952 0.378354
                    }
                  }
                }
              }
              JOINT lPinky1
              {
                OFFSET 3.42483 -0.278904 -0.240415
                CHANNELS 6 Xposition Yposition Zposition Zrotation Xrotation Yrotation
                JOINT lPinky2
                {
                  OFFSET 1.05787 -0.635999 0.156459
                  CHANNELS 6 Xposition Yposition Zposition Zrotation Xrotation Yrotation
                  JOINT lPinky3
                  {
                    OFFSET 0.42815 -0.754232 0.287187
                    CHANNELS 6 Xposition Yposition Zposition Zrotation Xrotation Yrotation
                    End Site
                    {
                      OFFSET 0.235717 -0.725605 0.279416
                    }
                  }
                }
              }
            }
          }
        }
      }
    }
  }
  JOINT rThigh
  {
    OFFSET -4.17848 -1.02486 0.046356
    CHANNELS 6 Xposition Yposition Zposition Zrotation Xrotation Yrotation
    JOINT rShin
    {
      OFFSET 1.27155 -17.465 -0.237699
      CHANNELS 6 Xposition Yposition Zposition Zrotation Xrotation Yrotation
      JOINT rFoot
      {
        OFFSET 0.529163 -17.3815 -1.19582
        CHANNELS 6 Xposition Yposition Zposition Zrotation Xrotation Yrotation
        JOINT rToe
        {
          OFFSET -0.711591 -4.4863 4.0596
          CHANNELS 6 Xposition Yposition Zposition Zrotation Xrotation Yrotation
          End Site
          {
            OFFSET -0.869915 -1.10655 1.99006
          }
        }
      }
    }
  }
  JOINT lThigh
  {
    OFFSET 4.17848 -1.02486 0.046356
    CHANNELS 6 Xposition Yposition Zposition Zrotation Xrotation Yrotation
    JOINT lShin
    {
      OFFSET -1.27155 -17.465 -0.237699
      CHANNELS 6 Xposition Yposition Zposition Zrotation Xrotation Yrotation
      JOINT lFoot
      {
        OFFSET -0.529163 -17.3815 -1.19582
        CHANNELS 6 Xposition Yposition Zposition Zrotation Xrotation Yrotation
        JOINT lToe
        {
          OFFSET 0.711591 -4.4863 4.0596
          CHANNELS 6 Xposition Yposition Zposition Zrotation Xrotation Yrotation
          End Site
          {
            OFFSET 0.869915 -1.10655 1.99006
          }
        }
      }
    }
  }
}
MOTION
Frames:	4
Frame Time:	0.0333333
3.78217 44.5269 0.0886633 -3.57169 -3.45558 -8.29221 4.44089e-016 5.99393 0.287273 4.0268 0.439186 -3.81262 8.88178e-016 6.65865 -0.856112 8.0741 0.608681 -7.64683 0 8.65624 -1.42685 2.17008 -0.0876114 5.28924 -3.55271e-015 3.80999 -0.190247 6.05969 2.94768 10.5489 -1.4963 7.5744 -1.52136 9.34365 -0.958453 -7.8657 -5.47506 -0.905672 0.485692 66.213 -15.4707 -18.3906 -11.3069 -0.201091 0.618544 31.3324 -13.2141 87.1111 -9.61414 -0.254739 3.48553 -13.7773 -51.6025 13.2231 0.176263 -0.07068 1.26622 2.02989 -1.93835 5.82627 -1.04683 -0.546484 1.82182 4.96057 -4.12177 13.4855 -0.993472 -0.621916 0.655506 13.1505 -7.64797 32.7028 -2.64253 0.566363 2.4162 59.2498 8.80756 -14.3879 -1.39394 -0.635138 0.899356 48.0083 8.40224 -11.1042 -0.622395 -0.856016 0.402182 65.1691 8.79124 -16.1206 -3.20814 0.514427 1.52547 49.6917 2.00654 -15.656 -1.56545 -0.497974 0.68919 38.4957 9.00796 -8.72926 -0.679943 -1.17582 0.444246 55.6541 10.7088 -14.0164 -3.47877 0.200518 0.597719 44.3506 -3.54491 -22.1048 -1.28208 -0.53155 0.44672 34.4122 9.16209 -9.1687 -0.710288 -0.970167 0.4032 51.4531 11.2171 -15.1424 -3.42483 -0.278904 -0.240415 43.7055 -4.93559 -28.7665 -1.05787 -0.635999 0.156459 34.2553 10.154 -8.94374 -0.42815 -0.754232 0.287187 51.3399 12.6936 -15.0482 1.4963 7.5744 -1.52136 11.1633 -6.01073 -2.23564 5.47506 -0.905672 0.485692 -84.3055 8.45123 6.64195 11.3069 -0.201091 0.618544 -27.4385 7.02354 -67.921 9.61414 -0.254739 3.48553 -31.2496 -64.2673 8.75552 -0.176263 -0.07068 1.26622 0.864004 0.743325 2.50573 1.04683 -0.546484 1.82182 -2.20784 -0.574513 -3.90946 0.993472 -0.621916 0.655506 -0.998787 -0.2798 -1.77428 2.64253 0.566363 2.4162 17.8963 -5.19007 -3.95303 1.39394 -0.635138 0.899356 11.082 -4.16909 -4.09814 0.622395 -0.856016 0.402182 13.6099 -5.24069 -4.92926 3.20814 0.514427 1.52547 16.9608 -6.3084 -5.61644 1.56545 -0.497974 0.68919 11.1448 -4.71591 -4.10633 0.679943 -1.17582 0.444246 14.0997 -6.11348 -5.05344 3.47877 0.200518 0.597719 14.1568 -7.05848 -5.88341 1.28208 -0.53155 0.44672 13.1582 -6.29496 -5.43981 0.710288 -0.970167 0.4032 13.7159 -6.58661 -5.63957 3.42483 -0.278904 -0.240415 13.3747 -7.4693 -5.79859 1.05787 -0.635999 0.156459 14.0231 -7.22659 -5.55805 0.42815 -0.754232 0.287187 13.5405 -6.97208 -5.39897 -4.17848 -1.02486 0.046356 -1.75001 1.30133 6.34538 1.27155 -17.465 -0.237699 1.1558 -0.293156 4.86015 0.529163 -17.3815 -1.19582 6.39877 2.05083 -1.31238 -0.711591 -4.4863 4.0596 0.050405 1.07453 -0.0281581 4.17848 -1.02486 0.046356 9.44594 1.74689 0.990901 -1.27155 -17.465 -0.237699 1.12648 7.07167 4.19821 -0.529163 -17.3815 -1.19582 -1.33422 -3.89031 0.833366 0.711591 -4.4863 4.0596 -0.240326 1.8611 -0.0895329 
3.78523 44.5291 0.0889937 -3.6957 -3.44505 -8.35548 -4.44089e-016 5.99393 0.287273 4.06781 0.491575 -3.79836 -8.88178e-016 6.65865 -0.856112 8.15951 0.711527 -7.62228 -1.77636e-015 8.65624 -1.42685 2.18149 -0.155014 5.3029 0 3.80999 -0.190247 6.05813 2.88671 10.5683 -1.4963 7.5744 -1.52136 9.34362 -0.958413 -7.86554 -5.47506 -0.905672 0.485692 66.2765 -15.5697 -18.7585 -11.3069 -0.201091 0.618544 31.1315 -12.992 86.8187 -9.61414 -0.254739 3.48553 -13.7894 -51.7415 13.142 0.176263 -0.07068 1.26622 1.98729 -1.90464 5.71649 -1.04683 -0.546484 1.82182 4.92361 -4.09782 13.3924 -0.993472 -0.621916 0.655506 12.9432 -7.59679 32.2396 -2.64253 0.566363 2.4162 59.6136 8.80829 -14.4951 -1.39394 -0.635138 0.899356 48.3433 8.42404 -11.2004 -0.622395 -0.856016 0.402182 65.5665 8.7826 -16.2371 -3.20814 0.514427 1.52547 50.0246 2.02255 -15.7311 -1.56545 -0.497974 0.68919 38.8058 9.05268 -8.82003 -0.679943 -1.17582 0.444246 56.0294 10.7281 -14.1364 -3.47877 0.200518 0.597719 44.6705 -3.54592 -22.1605 -1.28208 -0.53155 0.44672 34.7103 9.21331 -9.26786 -0.710288 -0.970167 0.4032 51.8169 11.2413 -15.275 -3.42483 -0.278904 -0.240415 44.0238 -4.96933 -28.8198 -1.05787 -0.635999 0.156459 34.5533 10.214 -9.04373 -0.42815 -0.754232 0.287187 51.7057 12.7275 -15.1853 1.4963 7.5744 -1.52136 11.1633 -6.01073 -2.23568 5.47506 -0.905672 0.485692 -84.2568 8.44066 6.7984 11.3069 -0.201091 0.618544 -27.3372 7.56585 -67.4674 9.61414 -0.254739 3.48553 -31.4256 -64.397 8.61063 -0.176263 -0.07068 1.26622 1.10722 0.887963 3.08798 1.04683 -0.546484 1.82182 -2.29469 -0.593848 -4.06234 0.993472 -0.621916 0.655506 -0.940961 -0.2645 -1.67183 2.64253 0.566363 2.4162 16.9336 -4.54984 -3.42366 1.39394 -0.635138 0.899356 10.8953 -4.09161 -4.03511 0.622395 -0.856016 0.402182 12.9326 -4.94958 -4.7108 3.20814 0.514427 1.52547 16.2518 -5.82889 -5.38849 1.56545 -0.497974 0.68919 10.69 -4.50586 -3.95491 0.679943 -1.17582 0.444246 13.5143 -5.83214 -4.87105 3.47877 0.200518 0.597719 13.607 -6.78772 -5.69715 1.28208 -0.53155 0.44672 12.6092 -6.00339 -5.2381 0.710288 -0.970167 0.4032 13.1939 -6.30009 -5.44775 3.42483 -0.278904 -0.240415 12.8107 -7.21881 -5.65772 1.05787 -0.635999 0.156459 13.5323 -6.94682 -5.39011 0.42815 -0.754232 0.287187 13.0102 -6.65111 -5.20893 -4.17848 -1.02486 0.046356 -1.62793 1.33994 6.34156 1.27155 -17.465 -0.237699 1.144 -0.36958 4.90236 0.529163 -17.3815 -1.19582 6.41136 2.09666 -1.29903 -0.711591 -4.4863 4.0596 0.0503989 1.07454 -0.0281331 4.17848 -1.02486 0.046356 9.55825 1.6691 0.970771 -1.27155 -17.465 -0.237699 1.14018 7.27219 4.23317 -0.529163 -17.3815 -1.19582 -1.34976 -3.99463 0.870391 0.711591 -4.4863 4.0596 -0.240336 1.86111 -0.0895169 
3.78732 44.5312 0.089299 -3.82263 -3.43545 -8.42709 -2.22045e-016 5.99393 0.287273 4.11094 0.545962 -3.78446 -8.88178e-016 6.65865 -0.856112 8.24932 0.818222 -7.59858 0 8.65624 -1.42685 2.19262 -0.224669 5.32109 1.77636e-015 3.80999 -0.190247 6.05308 2.82568 10.5927 -1.4963 7.5744 -1.52136 9.34358 -0.958407 -7.8655 -5.47506 -0.905672 0.485692 66.3432 -15.6852 -19.1581 -11.3069 -0.201091 0.618544 30.9019 -12.7568 86.4775 -9.61414 -0.254739 3.48553 -13.8048 -51.9119 13.0422 0.176263 -0.07068 1.26622 1.93881 -1.86607 5.5919 -1.04683 -0.546484 1.82182 4.8867 -4.0738 13.2993 -0.993472 -0.621916 0.655506 12.7081 -7.53659 31.7136 -2.64253 0.566363 2.4162 59.9317 8.80828 -14.5887 -1.39394 -0.635138 0.899356 48.6363 8.44265 -11.2847 -0.622395 -0.856016 0.402182 65.8974 8.7748 -16.3342 -3.20814 0.514427 1.52547 50.3157 2.03602 -15.7968 -1.56545 -0.497974 0.68919 39.0771 9.09135 -8.89961 -0.679943 -1.17582 0.444246 56.3419 10.7436 -14.2364 -3.47877 0.200518 0.597719 44.9504 -3.54599 -22.2083 -1.28208 -0.53155 0.44672 34.9711 9.25768 -9.35478 -0.710288 -0.970167 0.4032 52.1198 11.2609 -15.3855 -3.42483 -0.278904 -0.240415 44.3021 -4.99931 -28.8666 -1.05787 -0.635999 0.156459 34.8141 10.266 -9.13146 -0.42815 -0.754232 0.287187 52.0104 12.7552 -15.2996 1.4963 7.5744 -1.52136 11.1633 -6.01073 -2.23564 5.47506 -0.905672 0.485692 -84.2092 8.43573 6.9555 11.3069 -0.201091 0.618544 -27.2146 8.20811 -66.9126 9.61414 -0.254739 3.48553 -31.6435 -64.5557 8.4308 -0.176263 -0.07068 1.26622 1.35708 1.04275 3.69736 1.04683 -0.546484 1.82182 -2.38157 -0.612952 -4.21526 0.993472 -0.621916 0.655506 -0.88316 -0.249097 -1.5694 2.64253 0.566363 2.4162 15.9207 -3.88564 -2.86166 1.39394 -0.635138 0.899356 10.6914 -4.00729 -3.96603 0.622395 -0.856016 0.402182 12.2544 -4.66106 -4.489 3.20814 0.514427 1.52547 15.5072 -5.3305 -5.14568 1.56545 -0.497974 0.68919 10.2135 -4.28731 -3.79468 0.679943 -1.17582 0.444246 12.9283 -5.55266 -4.68591 3.47877 0.200518 0.597719 13.0309 -6.50673 -5.49936 1.28208 -0.53155 0.44672 12.0338 -5.70029 -5.02409 0.710288 -0.970167 0.4032 12.6114 -5.99766 -5.23624 3.42483 -0.278904 -0.240415 12.2197 -6.95934 -5.50721 1.05787 -0.635999 0.156459 13.0088 -6.65031 -5.20863 0.42815 -0.754232 0.287187 12.4393 -6.33009 -5.00832 -4.17848 -1.02486 0.046356 -1.50284 1.38636 6.33747 1.27155 -17.465 -0.237699 1.13051 -0.459775 4.95018 0.529163 -17.3815 -1.19582 6.42495 2.15026 -1.28393 -0.711591 -4.4863 4.0596 0.0503589 1.07455 -0.0280802 4.17848 -1.02486 0.046356 9.67301 1.59495 0.948855 -1.27155 -17.465 -0.237699 1.15379 7.47221 4.26805 -0.529163 -17.3815 -1.19582 -1.36751 -4.09958 0.911389 0.711591 -4.4863 4.0596 -0.240355 1.86112 -0.0894963 
3.78956 44.5335 0.0896127 -3.95847 -3.42632 -8.50428 2.22045e-016 5.99393 0.287273 4.15238 0.601246 -3.77032 0 6.65865 -0.856112 8.33572 0.926796 -7.57465 0 8.65624 -1.42685 2.21109 -0.292827 5.34126 1.77636e-015 3.80999 -0.190247 6.05367 2.76618 10.6192 -1.4963 7.5744 -1.52136 9.34357 -0.958414 -7.86551 -5.47506 -0.905672 0.485692 66.4256 -15.8125 -19.5891 -11.3069 -0.201091 0.618544 30.6458 -12.5094 86.085 -9.61414 -0.254739 3.48553 -13.8234 -52.11 12.9255 0.176263 -0.07068 1.26622 1.88448 -1.82277 5.4514 -1.04683 -0.546484 1.82182 4.84213 -4.04469 13.1868 -0.993472 -0.621916 0.655506 12.4438 -7.46616 31.1206 -2.64253 0.566363 2.4162 60.1951 8.8078 -14.6663 -1.39394 -0.635138 0.899356 48.8788 8.45776 -11.3546 -0.622395 -0.856016 0.402182 66.1713 8.7679 -16.4145 -3.20814 0.514427 1.52547 50.5567 2.04677 -15.8513 -1.56545 -0.497974 0.68919 39.3018 9.1231 -8.96564 -0.679943 -1.17582 0.444246 56.6006 10.756 -14.3193 -3.47877 0.200518 0.597719 45.1825 -3.54476 -22.2467 -1.28208 -0.53155 0.44672 35.1871 9.29412 -9.42692 -0.710288 -0.970167 0.4032 52.3706 11.2766 -15.477 -3.42483 -0.278904 -0.240415 44.5324 -5.02451 -28.9053 -1.05787 -0.635999 0.156459 35.03 10.3088 -9.20428 -0.42815 -0.754232 0.287187 52.2627 12.7776 -15.3944 1.4963 7.5744 -1.52136 11.1633 -6.01074 -2.23566 5.47506 -0.905672 0.485692 -84.1484 8.43013 7.11912 11.3069 -0.201091 0.618544 -27.074 8.94216 -66.2613 9.61414 -0.254739 3.48553 -31.9 -64.74 8.21851 -0.176263 -0.07068 1.26622 1.60993 1.20501 4.32893 1.04683 -0.546484 1.82182 -2.47674 -0.633601 -4.38269 0.993472 -0.621916 0.655506 -0.825381 -0.233597 -1.46697 2.64253 0.566363 2.4162 14.8656 -3.20414 -2.27086 1.39394 -0.635138 0.899356 10.4874 -3.92323 -3.89666 0.622395 -0.856016 0.402182 11.5348 -4.35825 -4.25037 3.20814 0.514427 1.52547 14.733 -4.81799 -4.88954 1.56545 -0.497974 0.68919 9.71938 -4.06232 -3.62683 0.679943 -1.17582 0.444246 12.2921 -5.25175 -4.48197 3.47877 0.200518 0.597719 12.4332 -6.21821 -5.29144 1.28208 -0.53155 0.44672 11.4368 -5.38857 -4.7993 0.710288 -0.970167 0.4032 12.0282 -5.69741 -5.02178 3.42483 -0.278904 -0.240415 11.6068 -6.69334 -5.34808 1.05787 -0.635999 0.156459 12.4846 -6.35547 -5.02455 0.42815 -0.754232 0.287187 11.8393 -5.99531 -4.79445 -4.17848 -1.02486 0.046356 -1.36877 1.44227 6.33377 1.27155 -17.465 -0.237699 1.11572 -0.563572 5.00136 0.529163 -17.3815 -1.19582 6.43943 2.21018 -1.26775 -0.711591 -4.4863 4.0596 0.0503071 1.07456 -0.0279982 4.17848 -1.02486 0.046356 9.79586 1.51393 0.925551 -1.27155 -17.465 -0.237699 1.1693 7.69317 4.30797 -0.529163 -17.3815 -1.19582 -1.38765 -4.21406 0.956375 0.711591 -4.4863 4.0596 -0.240386 1.86111 -0.0894503 
